<?xml version="1.0" encoding="utf-8"?>
<!-- Generator: Adobe Illustrator 24.1.2, SVG Export Plug-In . SVG Version: 6.00 Build 0)  -->
<svg version="1.1" id="Layer_1" xmlns="http://www.w3.org/2000/svg" xmlns:xlink="http://www.w3.org/1999/xlink" x="0px" y="0px"
	 viewBox="0 0 142 34" style="enable-background:new 0 0 142 34;" xml:space="preserve">
<desc>Created with Sketch.</desc>
<path d="M17.5,8.7c-0.4,0.4-0.9,0.8-1.4,1.1c-0.6,0.4-1.2,0.6-1.8,0.9c-0.7,0.2-1.3,0.3-2,0.3c-0.5,0-0.8,0.2-1,0.6
	c-0.2,0.4-0.2,0.9,0,1.4c0.2,0.5,0.5,1,1,1.4c0.5,0.4,1.2,0.6,2.2,0.6c1,0,2-0.3,2.8-0.8c0.9-0.5,1.6-1.1,2.2-1.9
	c0.6-0.8,1.1-1.6,1.4-2.5c0.3-0.9,0.3-1.8,0.2-2.6c-0.2-0.8-0.6-1.5-1.3-2.1c-0.7-0.6-1.7-0.9-3.1-1.1c-1.6-0.1-3.1,0-4.5,0.3
	C10.8,4.9,9.6,5.4,8.5,6c-1.1,0.6-2,1.4-2.7,2.3C5.1,9.2,4.5,10.1,4.2,11c-0.3,0.9-0.5,1.8-0.4,2.8c0.1,0.9,0.4,1.7,1,2.4
	c0.6,0.7,1.4,1.3,2.5,1.7c1.1,0.4,2.4,0.7,4,0.7c1,0,1.6,0.3,2,0.9c0.4,0.6,0.5,1.3,0.4,2.2c-0.1,0.9-0.4,1.9-0.9,2.9
	s-1.1,2-1.9,2.9c-0.8,0.9-1.6,1.6-2.6,2.2c-1,0.6-2,0.9-3,0.9c-0.7,0-1.1-0.2-1.3-0.5S3.8,29.5,3.9,29c0.2-0.5,0.5-1,0.9-1.6
	s1-1.1,1.6-1.6c0.6-0.5,1.3-0.9,2-1.2c0.7-0.3,1.4-0.5,2-0.5c0.5,0,0.8-0.2,1-0.6c0.2-0.4,0.2-0.9,0-1.4c-0.2-0.5-0.5-1-1-1.4
	C9.8,20.2,9.1,20,8.2,20c-1,0-2,0.3-2.9,0.9c-0.9,0.6-1.7,1.4-2.4,2.3c-0.7,0.9-1.2,1.9-1.5,3s-0.5,2.1-0.4,3c0.1,1,0.5,1.8,1.2,2.5
	s1.7,1.1,3.1,1.2c1.6,0.1,3.2,0,4.6-0.4s2.7-1,3.9-1.7c1.2-0.7,2.2-1.6,3-2.6c0.8-1,1.5-2,1.9-3.1c0.4-1,0.6-2.1,0.6-3.1
	c0-1-0.3-2-0.9-2.8c-0.6-0.8-1.4-1.5-2.6-2s-2.6-0.7-4.5-0.7c-0.9,0-1.6-0.2-1.9-0.7S8.9,14.6,9,13.9c0-0.8,0.3-1.6,0.7-2.4
	s1-1.7,1.7-2.4s1.5-1.4,2.4-1.9c0.9-0.5,1.9-0.7,2.9-0.7c0.7,0,1.1,0.1,1.4,0.3c0.2,0.2,0.3,0.5,0.2,0.9C18.1,7.9,17.9,8.3,17.5,8.7
	z"/>
<path d="M29.3,13.7c0.4,0,0.8-0.1,1.2-0.2c0.4-0.2,0.7-0.4,1-0.7s0.5-0.6,0.7-1c0.2-0.4,0.2-0.8,0.2-1.2c0-0.9-0.3-1.6-0.9-2.2
	c-0.6-0.6-1.3-0.9-2.2-0.9c-0.9,0-1.6,0.3-2.2,0.9c-0.6,0.6-0.9,1.3-0.9,2.2c0,0.8,0.3,1.6,0.9,2.2C27.7,13.4,28.4,13.7,29.3,13.7z"
	/>
<path d="M96.3,29c-0.6,0-1,0.2-1.4,0.6s-0.6,0.9-0.6,1.4s0.2,1,0.6,1.4s0.9,0.6,1.4,0.6s1-0.2,1.4-0.6s0.6-0.9,0.6-1.4
	s-0.2-1-0.6-1.4S96.9,29,96.3,29z"/>
<path d="M140.6,26.1C140.6,26.1,140.5,26.1,140.6,26.1C140.5,26,140.5,26,140.6,26.1c-0.1-0.1-0.1-0.1-0.2-0.1c0,0,0,0,0,0
	c0,0,0,0,0,0c0,0,0,0,0,0c0,0,0,0,0,0c0,0,0,0,0,0c0,0-0.2,0-0.3,0c0,0,0,0,0,0c-0.1,0-0.1,0-0.2,0c-0.1,0.2-0.3,0.5-0.4,0.7
	c-0.5,0.7-1.1,1.4-1.8,2c-0.7,0.6-1.6,1.2-2.6,1.6c-1,0.4-2.1,0.7-3.4,0.7c-0.6,0-1-0.1-1.3-0.4c-0.3-0.2-0.5-0.6-0.6-1
	c-0.1-0.4-0.1-0.9,0-1.5s0.2-1.2,0.5-1.8c0.6,0.1,1.3,0.2,2.2,0.1c0.8,0,1.8-0.2,3-0.6c0.9-0.3,1.7-0.8,2.4-1.4
	c0.8-0.6,1.4-1.3,1.9-2.1c0.5-0.8,0.9-1.6,1.1-2.4c0.2-0.8,0.2-1.6,0-2.3c-0.2-0.7-0.6-1.2-1.3-1.7c-0.7-0.4-1.7-0.7-3-0.7
	c-2,0-3.7,0.4-5.2,1.3c-1.5,0.9-2.7,2-3.7,3.3c-0.9,1.3-1.6,2.8-1.9,4.3c-0.1,0.3-0.1,0.7-0.2,1c-0.2,0.5-0.5,1-0.9,1.5
	c-0.5,0.7-1,1.3-1.6,1.9s-1.2,1.1-1.8,1.5c-0.6,0.4-1.2,0.6-1.7,0.7c-0.4,0-0.5-0.2-0.4-0.6c0.1-0.4,0.3-1,0.7-1.7
	c0.4-0.7,0.8-1.5,1.4-2.4c0.6-0.9,1.1-1.8,1.7-2.6c0.5-0.9,1-1.7,1.4-2.4c0.4-0.7,0.7-1.3,0.8-1.7c0.1-0.5,0.1-1.1-0.2-1.6
	s-0.7-0.9-1.2-1.3c-0.5-0.4-1-0.6-1.6-0.7s-1.1,0-1.5,0.2c-0.4,0.2-0.8,0.6-1.3,1.1c-0.5,0.6-1.1,1.2-1.7,1.9
	c-0.6,0.7-1.2,1.5-1.8,2.4c-0.6,0.9-1.3,1.7-1.9,2.6c0.5-1.1,1-2.1,1.5-3s0.8-1.6,1.1-2.1c0.3-0.5,0.2-1.1-0.1-1.6
	c-0.3-0.5-0.7-0.9-1.2-1.2c-0.5-0.3-1.1-0.5-1.7-0.5c-0.6,0-1.1,0.1-1.5,0.5c-0.4,0.3-0.9,0.7-1.5,1.4s-1.1,1.4-1.8,2.2
	c-0.6,0.8-1.3,1.7-1.9,2.7c-0.6,1-1.3,1.9-1.9,2.8c0.6-1.3,1.2-2.5,1.8-3.5c0.5-1,1-1.8,1.3-2.4c0.2-0.4,0.2-0.8,0.1-1.2
	c-0.1-0.4-0.4-0.8-0.7-1.1c-0.3-0.3-0.7-0.6-1.1-0.8c-0.4-0.2-0.9-0.4-1.3-0.5c-0.4-0.1-0.9,0-1.2,0.1c-0.4,0.1-0.6,0.4-0.8,0.8
	c-0.3,0.6-0.6,1.6-0.9,2.8c-0.3,1.2-0.6,2.6-0.9,4s-0.5,2.9-0.8,4.4c-0.2,1.5-0.4,2.8-0.6,3.9c-0.1,0.6,0,1.1,0.1,1.3
	c0.2,0.2,0.4,0.3,0.7,0.3c0.3-0.1,0.6-0.2,1-0.5c0.3-0.3,0.6-0.7,0.8-1.2c0,0,0-0.1,0-0.1c0.4-0.6,0.9-1.3,1.4-2.2
	c0.6-0.9,1.2-1.8,1.9-2.9c0.7-1,1.4-2,2.2-3c0.8-1,1.5-1.9,2.2-2.8c-0.3,0.9-0.5,1.8-0.8,2.8c-0.3,1-0.5,2-0.7,2.9
	c-0.2,1-0.4,1.9-0.6,2.9c-0.2,0.9-0.3,1.8-0.4,2.5c-0.1,0.6,0,1,0.1,1.3c0.2,0.2,0.4,0.3,0.7,0.3c0.3,0,0.6-0.2,0.9-0.5
	s0.6-0.7,0.8-1.2c0.4-0.6,1-1.5,1.7-2.5c0.7-1,1.5-2.1,2.3-3.2c0.8-1.1,1.7-2.3,2.6-3.4c0.9-1.1,1.7-2,2.4-2.8
	c-0.3,0.8-0.6,1.7-1,2.7c-0.4,1-0.7,2-1.1,3c-0.3,1-0.6,2-0.8,2.9s-0.3,1.8-0.2,2.5c0,0.7,0.3,1.3,0.7,1.8c0.4,0.4,1,0.7,1.9,0.7
	c1,0,2-0.3,2.9-0.8c1-0.6,1.8-1.2,2.6-2c0.5-0.5,0.9-0.9,1.3-1.4c0.3,1.1,1,2.1,1.9,2.9c1,0.9,2.4,1.3,4.2,1.3
	c1.5,0,2.9-0.3,4.1-0.8c1.2-0.5,2.3-1.2,3.2-2c0.9-0.7,1.6-1.5,2.1-2.3c0-0.1,0-0.2,0.1-0.2c0-0.2,0-0.4,0-0.5
	c-0.2-0.3-0.3-0.7-0.5-1C140.8,26.2,140.7,26.2,140.6,26.1z M132.5,21.9c0.5-0.8,1.1-1.5,1.7-2.2c0.6-0.6,1.1-1.1,1.7-1.5
	s1.1-0.6,1.6-0.6c0.6,0,0.9,0.3,1.1,0.8c0.1,0.5,0,1.1-0.2,1.9c-0.3,0.7-0.7,1.4-1.4,2.1s-1.4,1.2-2.3,1.6c-0.7,0.3-1.3,0.4-1.9,0.5
	c-0.6,0-1.1,0-1.6,0C131.5,23.5,132,22.7,132.5,21.9z"/>
<path d="M95.6,24.4c-0.1-0.4-0.3-0.6-0.5-0.7c-0.3-0.1-0.5,0-0.9,0.1s-0.6,0.5-0.8,1.1c-0.2,0.5-0.5,1.1-0.8,1.8
	c-0.4,0.7-0.8,1.3-1.2,1.9c-0.4,0.6-0.9,1.1-1.4,1.5c-0.5,0.4-1,0.6-1.6,0.7c-0.4,0-0.5-0.1-0.5-0.4c0-0.3,0.1-0.6,0.3-1.1
	c0.2-0.5,0.5-1,0.8-1.6c0.4-0.6,0.7-1.2,1.1-1.8c0.4-0.6,0.7-1.2,1-1.8s0.5-1.1,0.6-1.5c0.2-0.6,0.1-1.2-0.3-1.6
	c-0.4-0.4-0.8-0.8-1.4-1s-1.1-0.3-1.6-0.2c-0.5,0.1-0.9,0.3-1.1,0.8c-0.2,0.4-0.4,0.8-0.6,1.5c-0.2,0.6-0.4,1.3-0.7,2.1
	c-0.3,0.8-0.7,1.5-1,2.3c-0.4,0.8-0.8,1.5-1.3,2.2c-0.4,0.6-0.9,1.1-1.4,1.5c-0.5,0.4-1,0.5-1.4,0.4c-0.4-0.1-0.7-0.3-0.8-0.8
	c-0.1-0.4-0.1-1,0-1.7s0.3-1.4,0.7-2.2c0.3-0.8,0.8-1.6,1.3-2.4c0.5-0.8,1.2-1.6,1.9-2.3c0.7-0.7,1.5-1.3,2.3-1.8
	c0.9-0.5,1.8-0.8,2.8-1s2-0.2,3.1,0.1c0.6,0.1,1.1,0.1,1.4,0s0.5-0.4,0.5-0.7c0-0.3-0.1-0.6-0.3-0.9c-0.2-0.3-0.6-0.5-1-0.7
	c-1.9-0.6-3.7-0.8-5.4-0.7c-1.7,0.1-3.2,0.5-4.5,1.2s-2.5,1.5-3.5,2.5c-1,1-1.8,2.1-2.4,3.3c-0.4,0.8-0.8,1.6-1,2.4
	c-0.1,0.2-0.2,0.4-0.3,0.7c-0.1,0.9-0.2,1.6-0.3,2.6c0,0.1,0,0.1,0,0.2c0.1,0.4,0.1,0.7,0.2,1.1c0,0,0.1-0.1,0.1-0.1c0,0,0,0,0,0
	c0.2,1,0.7,1.8,1.4,2.5s1.6,1,2.8,1.1c1.1,0.1,2.1-0.2,3-0.9s1.7-1.6,2.3-2.6c0,1.1,0.2,1.9,0.6,2.7s1.1,1.1,2.1,1.1
	c1,0,1.9-0.3,2.7-0.8c0.8-0.6,1.6-1.2,2.2-2c0.6-0.8,1.2-1.6,1.7-2.4c0.5-0.8,0.8-1.6,1-2.2C95.6,25.3,95.7,24.8,95.6,24.4z"/>
<path d="M76.5,28.9c0.1,0,0.2,0,0.3-0.1c0,0,0,0,0.1,0c0,0,0,0,0,0c0.1,0,0.1-0.1,0.2-0.1c0,0,0,0,0,0c0,0,0,0,0,0
	c0,0,0.1-0.1,0.1-0.1c0,0,0.1-0.1,0.1-0.1c0-0.1,0.1-0.2,0.1-0.2c0,0,0,0,0,0c0.1-0.3,0.2-0.6,0.2-0.9c0,0,0-0.1,0-0.1
	c0,0,0-0.2,0-0.2c0-0.2,0-0.4,0-0.6c0-0.1,0-0.2,0-0.2c0,0,0,0,0,0c0-0.1,0-0.1,0-0.2c0,0,0,0,0,0c0,0-0.1-0.1-0.1-0.1
	c0,0-0.1-0.1-0.1-0.1c0,0-0.1-0.1-0.2-0.1c0,0,0,0,0,0c0,0,0,0-0.1,0c-0.1,0-0.1-0.1-0.2-0.1c-0.3-0.1-0.6-0.2-1-0.2
	c-0.1,0-0.2-0.1-0.2-0.1c-0.2,0.4-0.4,0.9-0.7,1.5c-0.4,0.7-0.8,1.4-1.2,2c-0.4,0.6-0.9,1.1-1.4,1.5c-0.5,0.4-1,0.6-1.6,0.5
	c-0.4-0.1-0.7-0.4-0.7-1s0.2-1.3,0.5-2.2c0.3-0.9,0.8-1.9,1.3-3c0.6-1.1,1.2-2.3,1.9-3.5c0.7-1.2,1.4-2.5,2.2-3.7
	c0.8-1.2,1.5-2.4,2.2-3.5c0.9-0.1,1.7-0.1,2.5-0.2c0.8,0,1.5-0.1,2.2-0.2s1.2-0.1,1.7-0.2c0.5,0,0.8-0.1,1-0.1
	c0.3-0.1,0.6-0.3,0.9-0.6s0.6-0.7,0.8-1.1c0.2-0.4,0.4-0.8,0.5-1.3c0.1-0.4,0.2-0.8,0.2-1.1c0-0.3-0.1-0.6-0.3-0.7s-0.5-0.2-0.8,0
	c-1.2,0.4-2.3,0.8-3.4,1.1s-2.1,0.5-3.2,0.7c0.3-0.5,0.6-1,0.8-1.4s0.3-0.7,0.4-0.9c0.1-0.4,0.1-0.9,0-1.4c-0.1-0.5-0.4-1-0.7-1.4
	s-0.6-0.9-1-1.2S79.1,3.2,78.7,3c-0.4-0.2-0.8-0.2-1.1-0.2c-0.4,0.1-0.6,0.3-0.8,0.7c-0.1,0.2-0.3,0.5-0.6,1s-0.6,1.1-0.9,1.8
	c-0.4,0.7-0.8,1.5-1.2,2.4c-0.4,0.9-0.9,1.8-1.4,2.8c-1,0.2-1.9,0.4-2.8,0.7c-0.9,0.3-1.8,0.6-2.6,1c-0.4,0.2-0.7,0.4-0.9,0.6
	c-0.2,0.2-0.2,0.4-0.2,0.6c0,0.2,0.2,0.3,0.5,0.4c0.3,0.1,0.6,0.1,1.1,0c0.5-0.1,1.1-0.2,1.7-0.3c0.6-0.1,1.3-0.2,2-0.2
	c-0.6,1.4-1.2,2.8-1.8,4.3c-0.6,1.4-1.1,2.9-1.5,4.2c-0.2,0.7-0.4,1.4-0.6,2.1c-0.2,0.5-0.5,1.1-1,1.7c-0.5,0.7-1.1,1.4-1.8,2
	c-0.7,0.6-1.6,1.2-2.6,1.6c-1,0.4-2.1,0.7-3.4,0.7c-0.6,0-1-0.1-1.3-0.4c-0.3-0.2-0.5-0.6-0.6-1c-0.1-0.4-0.1-0.9,0-1.5
	s0.2-1.2,0.5-1.8c0.6,0.1,1.3,0.2,2.2,0.1c0.8,0,1.8-0.2,3-0.6c0.9-0.3,1.7-0.8,2.4-1.4s1.4-1.3,1.9-2.1c0.5-0.8,0.9-1.6,1.1-2.4
	c0.2-0.8,0.2-1.6,0-2.3c-0.2-0.7-0.6-1.2-1.3-1.7c-0.7-0.4-1.7-0.7-3-0.7c-2,0-3.7,0.4-5.2,1.3c-1.5,0.9-2.7,2-3.7,3.3
	s-1.6,2.8-1.9,4.3c-0.1,0.3-0.1,0.6-0.2,1c-0.2,0.5-0.5,1-0.8,1.5c-0.4,0.7-0.7,1.3-1.2,1.9c-0.4,0.6-0.9,1.1-1.4,1.5
	s-1,0.6-1.6,0.7c-0.4,0-0.5-0.2-0.4-0.6c0.1-0.4,0.3-1,0.7-1.7c0.4-0.7,0.8-1.5,1.3-2.4c0.5-0.9,1-1.8,1.6-2.6
	c0.5-0.9,1-1.7,1.4-2.4c0.4-0.7,0.7-1.3,0.8-1.7c0.2-0.6,0-1.2-0.4-1.8s-0.9-1-1.5-1.3c-0.6-0.3-1.2-0.5-1.9-0.4
	c-0.6,0-1.1,0.3-1.3,0.9c-0.2,0.4-0.5,1.1-0.8,2c-0.4,0.9-0.7,2-1.1,3.2c-0.2,0.5-0.4,1-0.7,1.7s-0.6,1.4-1,2.1
	c-0.4,0.7-0.8,1.4-1.2,2.1c-0.4,0.7-0.9,1.3-1.3,1.8c-0.4,0.5-0.9,0.9-1.3,1.2c-0.4,0.3-0.9,0.3-1.3,0.2c-0.3-0.1-0.4-0.3-0.4-0.8
	s0.2-0.9,0.4-1.5c0.2-0.6,0.6-1.3,1-2s0.9-1.6,1.3-2.4c0.5-0.8,1-1.7,1.4-2.5c0.5-0.8,1-1.6,1.4-2.4c0.2-0.3,0.2-0.7,0.1-1.1
	c-0.1-0.4-0.3-0.8-0.5-1.2c-0.3-0.4-0.6-0.7-1-1c-0.4-0.3-0.8-0.5-1.2-0.6s-0.8-0.1-1.1,0S40,15.5,39.8,16c-0.6,1.2-1.2,2.5-1.8,3.7
	c-0.6,1.3-1,2.5-1.4,3.7c-0.2,0.6-0.4,1.1-0.5,1.6c-0.2,0.5-0.5,1-0.8,1.6c-0.4,0.7-0.8,1.4-1.2,2c-0.4,0.6-0.9,1.1-1.4,1.5
	c-0.5,0.4-1,0.6-1.6,0.5c-0.5-0.1-0.7-0.5-0.6-1.2c0.1-0.7,0.4-1.6,0.9-2.7c0.5-1.1,1.1-2.4,1.9-3.8c0.8-1.4,1.6-2.9,2.5-4.4
	c0.9-1.5,1.8-3,2.7-4.4c0.9-1.5,1.8-2.8,2.5-4S42.4,7.8,43,7c0.5-0.9,0.8-1.5,0.9-1.8C44,4.7,44,4.3,43.8,3.8
	c-0.2-0.5-0.4-1-0.7-1.4c-0.3-0.5-0.7-0.9-1.1-1.3s-0.9-0.7-1.3-0.8C40.2,0,39.8,0,39.4,0c-0.4,0.1-0.7,0.3-0.9,0.7l-1.1,2.1
	c-0.6,1.1-1.3,2.4-2,3.9s-1.6,3.3-2.5,5.2s-1.7,3.8-2.4,5.7c-0.8,1.9-1.4,3.8-1.9,5.6c-0.2,0.6-0.3,1.2-0.5,1.8
	c-0.2,0.5-0.4,1-0.7,1.5c-0.4,0.7-0.8,1.3-1.2,1.9s-0.9,1.1-1.4,1.5c-0.5,0.4-1,0.6-1.6,0.7c-0.4,0-0.5-0.2-0.4-0.6
	c0.1-0.4,0.3-1,0.7-1.7c0.4-0.7,0.8-1.5,1.3-2.4c0.5-0.9,1-1.8,1.6-2.6s1-1.7,1.4-2.4c0.4-0.7,0.7-1.3,0.8-1.7
	c0.2-0.6,0-1.2-0.4-1.8c-0.4-0.6-0.9-1-1.5-1.3c-0.6-0.3-1.2-0.5-1.9-0.4c-0.6,0-1.1,0.3-1.3,0.9c-0.2,0.4-0.5,1.1-0.9,2.1
	c-0.4,1-0.8,2.1-1.1,3.3s-0.7,2.5-1,3.8c-0.3,1.3-0.4,2.5-0.4,3.6s0.2,2,0.6,2.7c0.4,0.7,1.1,1.1,2,1.1c1,0,1.9-0.3,2.7-0.8
	c0.8-0.6,1.6-1.2,2.2-2c0.1-0.1,0.1-0.1,0.2-0.2c0.1,0.6,0.2,1.1,0.5,1.5c0.4,0.9,1.3,1.4,2.5,1.5c1,0.1,1.9-0.2,2.7-0.7
	c0.8-0.5,1.6-1.2,2.2-2c0,0,0,0,0,0c0.1,0.6,0.3,1.2,0.7,1.6c0.4,0.6,1,0.9,1.9,1.1c0.7,0.1,1.3,0.1,1.9-0.1c0.6-0.2,1.2-0.6,1.7-1
	s1.1-1,1.6-1.6c0.5-0.6,0.9-1.3,1.3-2c0,0.7,0,1.3,0,1.9c0,0.6,0.2,1.1,0.4,1.5c0.2,0.4,0.5,0.8,0.8,1c0.4,0.2,0.8,0.4,1.4,0.4
	c1,0,1.9-0.3,2.7-0.8c0.8-0.6,1.6-1.2,2.2-2c0.3-0.4,0.6-0.8,0.9-1.2c0.4,1,0.9,1.9,1.8,2.6c1,0.9,2.4,1.3,4.2,1.3
	c1.5,0,2.9-0.3,4.1-0.8c1.2-0.5,2.3-1.2,3.2-2c0.3-0.3,0.6-0.5,0.8-0.8c0,0.1,0,0.3,0,0.4c0.1,0.9,0.4,1.7,0.9,2.2s1.2,0.9,2.2,1
	c1,0.1,1.9-0.2,2.7-0.7c0.8-0.5,1.6-1.2,2.2-2c0.2-0.3,0.4-0.6,0.7-0.9C76,29.2,76.2,29,76.5,28.9z M59.7,21.8
	c0.5-0.8,1.1-1.5,1.7-2.2c0.6-0.6,1.1-1.1,1.7-1.5c0.6-0.4,1.1-0.6,1.6-0.6c0.6,0,0.9,0.3,1.1,0.8c0.1,0.5,0,1.1-0.2,1.9
	c-0.3,0.7-0.7,1.4-1.4,2.1c-0.6,0.7-1.4,1.2-2.3,1.6c-0.7,0.3-1.3,0.4-1.9,0.5c-0.6,0-1.1,0-1.6,0C58.6,23.4,59.1,22.6,59.7,21.8z"
	/>
</svg>
