<?xml version="1.0" standalone="no"?>
<!DOCTYPE svg PUBLIC "-//W3C//DTD SVG 20010904//EN"
 "http://www.w3.org/TR/2001/REC-SVG-20010904/DTD/svg10.dtd">
<svg version="1.0" xmlns="http://www.w3.org/2000/svg"
 width="305.000000pt" height="81.000000pt" viewBox="0 0 305.000000 81.000000"
 preserveAspectRatio="xMidYMid meet">
<metadata>
Created by potrace 1.16, written by Peter Selinger 2001-2019
</metadata>
<g transform="translate(0.000000,81.000000) scale(0.100000,-0.100000)"
fill="#000000" stroke="none">
<path d="M505 801 c-163 -27 -320 -95 -396 -171 -54 -55 -78 -114 -60 -149 18
-33 44 -25 90 29 78 93 210 178 330 214 61 18 156 21 195 6 66 -25 32 -124
-84 -241 -61 -62 -94 -85 -170 -122 -105 -51 -205 -84 -194 -64 22 37 124 165
192 243 l80 89 -67 3 -66 3 -48 -53 c-53 -57 -156 -198 -199 -272 -25 -43 -31
-46 -68 -46 -49 0 -56 -26 -11 -41 l29 -10 -19 -50 c-33 -87 -21 -159 26 -159
19 0 26 7 31 27 12 55 27 99 50 144 22 45 25 46 77 52 29 3 96 19 147 37 186
62 351 188 410 311 69 146 21 213 -160 224 -36 2 -87 0 -115 -4z"/>
<path d="M2397 778 c-25 -18 -131 -98 -236 -177 l-189 -144 -139 -2 c-154 -3
-215 -15 -331 -70 -88 -41 -136 -78 -174 -129 -37 -51 -39 -113 -4 -153 22
-25 31 -28 83 -28 49 1 75 8 148 43 79 38 269 159 382 243 42 32 42 32 70 14
59 -39 63 -58 33 -153 -40 -128 -18 -212 56 -212 l35 0 -6 44 c-19 127 141
419 378 689 l59 67 -60 0 c-52 0 -66 -5 -105 -32z m-588 -434 c-220 -153 -380
-232 -413 -204 -23 18 -20 41 15 93 68 104 236 174 418 176 l75 1 -95 -66z"/>
<path d="M2930 785 c-14 -7 -86 -43 -160 -78 -148 -71 -256 -147 -296 -206
-30 -46 -42 -105 -24 -126 15 -18 79 -20 84 -2 23 80 45 118 100 173 57 57
201 152 213 141 7 -8 -134 -256 -210 -370 -107 -161 -219 -254 -320 -264 -128
-12 -125 111 4 182 47 25 58 27 135 23 80 -4 84 -3 84 17 0 11 -7 31 -16 44
-16 22 -22 23 -88 19 -156 -10 -286 -112 -286 -223 0 -50 14 -71 60 -95 96
-49 269 1 392 113 60 55 159 191 256 352 57 94 120 192 140 219 20 27 42 55
47 63 23 31 -65 45 -115 18z"/>
<path d="M747 423 c-34 -5 -72 -56 -129 -169 -49 -99 -61 -169 -31 -178 27 -9
67 8 115 46 38 30 39 30 45 9 6 -25 51 -51 87 -51 36 0 102 27 166 69 66 43
220 188 220 207 0 29 -34 12 -108 -54 -134 -119 -227 -180 -258 -168 -31 12
-7 89 47 151 35 40 105 95 121 95 14 0 -18 -53 -51 -84 -33 -32 -32 -46 4 -46
33 0 125 91 125 123 0 41 -32 61 -89 54 -87 -10 -166 -62 -220 -144 -17 -26
-57 -70 -88 -97 l-57 -51 24 40 c13 22 54 83 92 136 37 53 68 101 68 108 0 11
-27 12 -83 4z"/>
</g>
</svg>
