<?xml version="1.0" standalone="no"?>
<!DOCTYPE svg PUBLIC "-//W3C//DTD SVG 20010904//EN"
 "http://www.w3.org/TR/2001/REC-SVG-20010904/DTD/svg10.dtd">
<svg version="1.0" xmlns="http://www.w3.org/2000/svg" 
 width="2000.000000pt" height="2000.000000pt" viewBox="0 0 2000.000000 2000.000000"
 preserveAspectRatio="xMidYMid meet">
<metadata>
Created by potrace 1.16, written by Peter Selinger 2001-2019
</metadata>
<g transform="translate(0.000000,2000.000000) scale(0.100000,-0.100000)"
fill="#000000" stroke="none">
<path d="M15415 13171 c-147 -43 -313 -132 -449 -240 -77 -61 -257 -247 -317
-326 -25 -33 -83 -115 -128 -182 -168 -247 -113 -212 -821 -518 -766 -330
-1398 -664 -1443 -762 -12 -27 5 -53 35 -53 11 0 72 31 136 69 137 81 492 259
796 401 119 55 218 100 220 100 5 0 294 122 453 191 105 45 255 99 278 99 33
0 16 -46 -180 -475 -208 -456 -379 -936 -500 -1400 -63 -244 -265 -1115 -341
-1475 -138 -651 -303 -1190 -461 -1504 -46 -92 -136 -237 -161 -259 -11 -10
-64 -36 -117 -58 -96 -39 -193 -97 -227 -136 -10 -11 -21 -33 -24 -50 -8 -41
26 -77 87 -93 92 -25 194 20 315 137 42 40 98 85 124 98 122 62 342 99 590 99
194 0 277 -10 610 -76 184 -36 215 -40 305 -34 163 9 292 54 446 154 95 62
137 106 177 180 41 77 41 111 1 157 -46 52 -66 45 -105 -35 -62 -128 -191
-236 -357 -300 -172 -67 -320 -77 -522 -35 -376 77 -686 95 -987 59 -48 -6
-58 -4 -58 8 0 22 23 86 80 220 148 346 256 709 375 1253 31 143 71 330 90
415 19 85 53 241 75 345 74 346 82 378 160 695 95 383 128 499 226 790 194
573 501 1249 632 1391 70 77 135 116 430 262 323 161 625 325 733 399 199 135
268 262 206 379 -57 107 -225 156 -382 110z m268 -114 c51 -22 61 -40 43 -75
-38 -73 -254 -235 -471 -355 -195 -107 -514 -259 -554 -264 -36 -5 -41 -3 -41
14 0 42 179 265 298 370 153 136 291 226 421 273 130 48 245 61 304 37z"/>
<path d="M6174 12271 c-103 -38 -216 -105 -311 -184 -219 -184 -535 -561 -740
-882 -139 -219 -195 -318 -316 -562 -271 -548 -450 -1083 -586 -1752 -63 -307
-67 -318 -126 -349 -55 -28 -95 -32 -115 -12 -26 26 -34 161 -27 474 8 396 46
782 117 1211 57 341 177 881 335 1515 33 132 59 258 62 305 5 72 3 82 -15 98
-23 21 -61 19 -73 -3 -4 -8 -14 -60 -23 -115 -8 -55 -58 -257 -111 -450 -205
-749 -256 -973 -320 -1395 -64 -421 -89 -733 -105 -1305 -6 -209 -15 -394 -21
-412 -19 -60 -127 -87 -330 -81 -119 3 -140 6 -190 29 -76 36 -133 89 -166
157 -25 52 -28 67 -28 162 1 92 5 117 34 200 53 155 114 254 254 414 61 69 77
94 75 115 -4 30 -41 47 -82 37 -42 -10 -172 -141 -237 -240 -128 -190 -185
-348 -177 -489 9 -171 123 -326 301 -411 128 -60 319 -91 463 -75 61 7 82 6
92 -5 19 -18 37 -142 67 -441 32 -323 48 -443 80 -592 49 -225 75 -287 130
-302 49 -13 99 2 115 37 9 19 16 147 26 435 7 224 15 431 19 460 3 28 12 153
20 277 14 220 27 296 59 345 9 13 78 68 154 122 234 166 412 315 583 490 347
353 610 701 902 1193 74 125 237 464 300 625 97 248 179 527 221 754 45 235
-14 511 -126 594 -38 29 -120 32 -184 8z m179 -99 c35 -38 41 -111 29 -310
-14 -225 -29 -295 -121 -562 -232 -681 -537 -1231 -965 -1745 -264 -317 -789
-793 -913 -830 -58 -17 -49 70 48 474 70 294 165 594 297 946 153 407 430 918
686 1265 260 351 615 681 820 759 64 25 99 26 119 3z m-2225 -3861 c5 -85 -26
-521 -42 -579 -15 -61 -30 -82 -47 -65 -5 5 -19 109 -30 229 -29 333 -32 379
-25 408 9 36 61 67 106 64 35 -3 35 -3 38 -57z"/>
<path d="M11008 11940 c-75 -62 -291 -406 -509 -811 -241 -449 -369 -731 -531
-1169 -119 -323 -111 -314 -374 -394 -183 -56 -232 -74 -359 -136 -152 -74
-249 -143 -366 -259 -133 -134 -163 -190 -164 -302 0 -70 3 -81 30 -121 41
-58 107 -91 189 -92 59 -1 61 0 61 24 0 22 -7 27 -65 42 -75 20 -111 44 -124
81 -8 21 -3 40 27 99 46 94 140 196 253 276 97 69 307 176 424 215 106 36 238
63 250 51 14 -14 -40 -192 -255 -849 -103 -313 -222 -682 -265 -820 -103 -329
-138 -426 -160 -449 -46 -47 -50 29 -8 168 l21 69 -23 19 c-27 22 -63 23 -84
3 -26 -27 -86 -269 -86 -350 0 -51 31 -119 64 -140 40 -26 96 -29 132 -7 57
36 131 205 239 547 325 1026 544 1704 576 1781 26 62 37 79 63 89 58 24 397
52 451 37 29 -8 30 -11 33 -71 2 -34 -6 -128 -18 -209 -37 -266 -49 -394 -66
-702 -47 -855 39 -1659 217 -2028 46 -95 78 -122 147 -122 47 0 51 8 23 54
-28 44 -93 240 -129 386 -32 128 -70 343 -97 555 -37 289 -37 1134 0 1505 20
199 74 569 86 592 5 10 21 21 36 24 32 8 314 0 658 -20 304 -18 685 -20 805
-5 104 12 182 34 212 58 39 32 23 121 -22 121 -9 0 -69 -12 -131 -27 -111 -27
-121 -27 -404 -27 -265 1 -882 25 -1015 40 -81 9 -90 16 -90 73 0 26 7 90 16
142 22 127 205 863 297 1190 191 680 203 731 183 808 -7 28 -21 60 -31 71 -27
30 -74 26 -117 -10z m-99 -653 c-50 -182 -108 -393 -129 -467 -21 -74 -57
-211 -80 -305 -199 -810 -195 -797 -226 -809 -9 -3 -80 -11 -157 -16 -78 -6
-177 -13 -219 -16 -68 -6 -78 -5 -84 11 -23 60 215 644 486 1190 202 408 425
791 474 813 43 19 32 -51 -65 -401z"/>
<path d="M6569 10478 c-23 -40 -70 -116 -104 -168 -143 -220 -159 -255 -130
-284 12 -12 21 -13 35 -6 51 27 300 418 300 471 0 42 -10 59 -36 59 -18 0 -32
-15 -65 -72z"/>
<path d="M7845 10291 c-137 -49 -258 -131 -360 -245 -82 -92 -136 -163 -188
-251 -25 -43 -90 -121 -167 -200 -69 -71 -245 -258 -392 -415 -147 -157 -304
-317 -350 -357 -182 -158 -373 -277 -445 -277 -53 0 -67 23 -71 112 -11 226
124 604 321 904 94 143 105 189 52 218 -19 10 -31 11 -43 4 -33 -19 -192 -270
-266 -419 -87 -172 -123 -273 -161 -439 -46 -208 -31 -329 54 -419 47 -51 98
-71 181 -72 143 0 206 45 658 477 156 149 306 297 334 330 28 32 53 57 55 55
1 -2 -8 -36 -22 -76 -79 -233 -116 -574 -80 -730 30 -127 115 -266 194 -315
84 -54 220 -71 329 -42 207 55 529 296 756 566 117 139 164 201 380 503 235
328 256 362 256 404 0 32 -26 63 -52 63 -22 0 -127 -129 -323 -395 -409 -558
-502 -663 -723 -828 -211 -157 -349 -219 -489 -221 -68 -1 -86 2 -109 20 -79
59 -106 143 -112 346 -4 138 -1 172 22 292 33 167 100 378 175 551 152 348
320 560 553 698 108 64 174 71 196 22 17 -37 15 -67 -9 -127 -12 -29 -26 -69
-31 -88 -6 -21 -30 -53 -61 -82 -55 -52 -54 -70 3 -83 92 -20 177 113 187 295
5 83 3 101 -15 135 -50 98 -126 125 -237 86z"/>
</g>
</svg>
